<?xml version="1.0" encoding="UTF-8" standalone="no"?>
<svg
   xmlns:dc="http://purl.org/dc/elements/1.1/"
   xmlns:cc="http://creativecommons.org/ns#"
   xmlns:rdf="http://www.w3.org/1999/02/22-rdf-syntax-ns#"
   xmlns:svg="http://www.w3.org/2000/svg"
   xmlns="http://www.w3.org/2000/svg"
   xmlns:sodipodi="http://sodipodi.sourceforge.net/DTD/sodipodi-0.dtd"
   xmlns:inkscape="http://www.inkscape.org/namespaces/inkscape"
   version="1.1"
   x="0px"
   y="0px"
   viewBox="0 0 100 125"
   enable-background="new 0 0 100 100"
   xml:space="preserve"
   id="svg3688"
   sodipodi:docname="pig.svg"
   inkscape:version="0.92.1 r15371"><metadata
     id="metadata3694"><rdf:RDF><cc:Work
         rdf:about=""><dc:format>image/svg+xml</dc:format><dc:type
           rdf:resource="http://purl.org/dc/dcmitype/StillImage" /><dc:title></dc:title></cc:Work></rdf:RDF></metadata><defs
     id="defs3692" /><sodipodi:namedview
     pagecolor="#ffffff"
     bordercolor="#666666"
     borderopacity="1"
     objecttolerance="10"
     gridtolerance="10"
     guidetolerance="10"
     inkscape:pageopacity="0"
     inkscape:pageshadow="2"
     inkscape:window-width="1920"
     inkscape:window-height="1058"
     id="namedview3690"
     showgrid="false"
     inkscape:zoom="5.0346003"
     inkscape:cx="11.859618"
     inkscape:cy="61.793862"
     inkscape:window-x="1912"
     inkscape:window-y="-8"
     inkscape:window-maximized="1"
     inkscape:current-layer="svg3688" /><rect
     fill="none"
     width="100"
     height="100"
     id="rect3680" /><path
     d="M30.9,48.603c0.905,0.965,0.854,2.479-0.111,3.385l-0.794,0.746c-0.461,0.432-1.05,0.649-1.636,0.649  c-0.641,0-1.277-0.256-1.747-0.76c-0.906-0.962-0.859-2.479,0.106-3.384l0.794-0.745C28.474,47.59,29.994,47.637,30.9,48.603z   M93.787,42.954c-1.585-0.032-2.938,0.387-3.84,1.16c1.269,0.201,2.366,0.717,3.113,1.501c1.124,1.179,1.308,2.369,1.261,3.161  c-0.048,0.959-0.471,1.856-1.115,2.398c-0.495,0.414-1.294,0.675-2.183,0.675c-1.127,0-2.4-0.416-3.408-1.471  c-0.862-0.908-1.319-2.159-1.337-3.466c-1.128,0.455-2.152,1.226-3.032,2.232c1.332,2.958,2.093,6.12,2.093,9.417  c0,7.5-3.673,14.543-10.366,19.92l-2.951,14.086c-0.234,1.11-1.213,1.901-2.341,1.901H55.245c-1.324,0-2.396-1.068-2.396-2.393  v-5.014c-3.451,0.397-6.359,0.397-9.811,0v5.014c0,1.324-1.072,2.393-2.396,2.393H26.214c-1.136,0-2.11-0.791-2.345-1.901  l-2.956-14.086c-3.075-2.477-5.583-5.429-7.351-8.627H7.396C6.072,69.853,5,68.78,5,67.456V49.662c0-1.319,1.072-2.392,2.396-2.392  h6.167c2.024-3.667,5.044-6.855,8.683-9.512c-0.645-3.671-3.626-9.894-5.633-11.408c-0.82-0.619-1.158-1.695-0.829-2.671  c0.329-0.976,1.243-1.634,2.272-1.634c9.755,0,17.99,3.375,21.987,8.384c2.567-0.434,5.211-0.667,7.897-0.667  c15.234,0,28.352,7.06,34.173,17.144c1.38-1.345,3.007-2.3,4.779-2.682c0.637-1.292,2.524-3.75,6.928-3.665  c0.662,0.009,1.188,0.553,1.179,1.213C94.991,42.435,94.471,42.896,93.787,42.954z M80.551,58.56  c0-13.237-14.628-24.007-32.609-24.007c-1.909,0-3.771,0.171-5.612,0.412c0.188,0.782,0.316,1.574,0.316,2.392  c0,1.32-1.072,2.394-2.396,2.394c-1.32,0-2.392-1.074-2.392-2.394c0-4.76-6.313-8.903-14.637-10.146  c2.229,3.885,3.951,8.901,3.951,11.816c0,0.491-0.188,0.92-0.439,1.3l0.068,0.045c-0.068,0.043-0.124,0.099-0.192,0.141  c-0.278,0.339-0.624,0.598-1.042,0.748c-3.673,2.571-6.625,5.742-8.38,9.43c-0.397,0.833-1.239,1.367-2.157,1.367h-5.24v13.007h5.24  c0.918,0,1.76,0.529,2.157,1.366c1.567,3.289,4.104,6.33,7.346,8.799c0.457,0.346,0.773,0.85,0.893,1.414l2.733,13.035H38.25v-5.373  c0-0.7,0.307-1.367,0.845-1.824c0.534-0.457,1.243-0.653,1.939-0.538c5.151,0.851,8.653,0.851,13.821,0.005  c0.691-0.115,1.4,0.081,1.938,0.533c0.534,0.457,0.842,1.124,0.842,1.828v5.369h10.097l2.733-13.035  c0.115-0.564,0.432-1.068,0.889-1.414C77.288,70.715,80.551,64.795,80.551,58.56z M88.7,46.418  c-0.111,0.882,0.119,1.749,0.649,2.309c0.893,0.931,2.08,0.784,2.323,0.608c0.072-0.062,0.239-0.318,0.261-0.694  c0.025-0.457-0.184-0.931-0.603-1.373C90.926,46.843,89.964,46.399,88.7,46.418z M42.662,16.484c0-6.04,4.916-10.951,10.951-10.951  c6.039,0,10.951,4.912,10.951,10.951c0,6.037-4.912,10.946-10.951,10.946C47.578,27.431,42.662,22.521,42.662,16.484z   M45.059,16.484c0,4.715,3.839,8.553,8.555,8.553c4.715,0,8.555-3.838,8.555-8.553c0-4.718-3.84-8.557-8.555-8.557  C48.898,7.927,45.059,11.767,45.059,16.484z M53.613,21.938c0.662,0,1.2-0.538,1.2-1.2v-8.512c0-0.662-0.538-1.198-1.2-1.198  s-1.196,0.536-1.196,1.198v8.512C52.417,21.4,52.951,21.938,53.613,21.938z"
     id="path3682" /></svg>